<svg width="1200" height="388" viewBox="0 0 1200 388" fill="none" xmlns="http://www.w3.org/2000/svg">
<path d="M39.0177 215.724V119.458H0V70.8047H20.3551C35.2005 70.8047 42.4028 65.6033 42.4028 50.3348V0.35083H94.9876V70.8047H155.224V119.458H93.2862V209.791C93.2862 235.665 106.43 249.655 130.602 249.655H155.198V296.73H119.997C49.8696 296.73 39 264.923 39 215.732L39.0177 215.724Z" fill="black"/>
<path d="M179.405 70.7961H233.259V296.695H179.405V70.7961Z" fill="black"/>
<path d="M1199.71 70.8486V117.307C1160.69 117.307 1136.1 138.085 1136.1 168.199V296.747H1082.24V70.8486H1133.13V96.9518C1148.4 79.1444 1171.73 70.8486 1199.72 70.8486H1199.71Z" fill="black"/>
<path d="M709.177 70.7518C680.887 70.7518 655.217 82.8379 636.36 102.47V0.289307H586.402V296.721H636.36V264.959C655.217 284.591 680.887 296.677 709.177 296.677C767.068 296.677 814.002 246.102 814.002 183.714C814.002 121.327 767.068 70.7518 709.177 70.7518ZM697.646 252.82C662.049 252.82 633.187 221.886 633.187 183.714C633.187 145.543 662.049 114.609 697.646 114.609C733.243 114.609 762.105 145.543 762.105 183.714C762.105 221.886 733.243 252.82 697.646 252.82Z" fill="black"/>
<path d="M1058.1 179.289C1058.1 124.033 1016.76 70.8224 948.81 70.8224C887.004 70.8224 838.298 121.168 838.298 183.794C838.298 246.419 883.319 296.765 952.089 296.765C1004.48 296.765 1033.13 274.664 1049.51 248.059L1008.58 221.859C998.759 241.095 983.199 252.15 953.729 252.15C921.393 252.15 896.428 232.5 889.463 200.164H1056.87C1057.69 195.66 1058.1 187.479 1058.1 179.289ZM889.455 163.73C896.005 130.574 919.745 111.744 950.035 111.744C980.325 111.744 1002.43 131.394 1008.16 163.73H889.455Z" fill="black"/>
<path d="M364.84 79.5059C359.992 67.5961 343.128 67.5961 338.288 79.5059L257.961 276.983C254.126 286.407 261.064 296.721 271.237 296.721H365.836L409.359 188.916L364.849 79.5059H364.84Z" fill="black"/>
<path d="M372.096 296.721H378.716H441.395H446.578L409.341 204.475L372.096 296.721Z" fill="black"/>
<path d="M560.775 276.983L480.448 79.5059C475.599 67.5961 458.735 67.5961 453.896 79.5059L409.377 188.925L452.864 296.721H547.508C557.681 296.721 564.619 286.416 560.784 276.983H560.775Z" fill="black"/>
<path d="M883.249 387.971C869.867 387.971 859.984 377.957 859.984 363.896C859.984 349.835 869.937 339.758 883.249 339.758C894.206 339.758 901.135 345.806 904.291 354.014L898.782 356.297C896.163 349.174 890.848 345.207 883.116 345.207C873.102 345.207 865.838 352.867 865.838 363.966C865.838 375.065 873.102 382.796 883.725 382.796C892.664 382.796 899.258 377.216 900.739 367.466H883.125V363.032H906.257C906.257 378.433 896.304 387.98 883.257 387.98L883.249 387.971Z" fill="black"/>
<path d="M953.173 366.382H948.871V387.222H943.221V340.49H960.57C969.914 340.49 975.768 345.806 975.768 353.396C975.768 360.986 969.852 366.372 960.57 366.372H959.424L976.032 387.213H969.509L953.173 366.372V366.382ZM948.871 362.15H960.437C966.626 362.15 970.117 358.791 970.117 353.881C970.117 348.971 966.617 345.541 960.437 345.541H948.871V362.15Z" fill="black"/>
<path d="M1047.31 340.499V369.881C1047.31 379.702 1041.52 387.971 1029.75 387.971C1017.99 387.971 1012.14 379.764 1012.14 369.881V340.499H1017.92V369.881C1017.92 377.004 1021.82 382.593 1029.75 382.593C1037.69 382.593 1041.58 377.013 1041.58 369.881V340.499H1047.3H1047.31Z" fill="black"/>
<path d="M1119.25 354.084C1119.25 362.353 1113.33 367.73 1104.05 367.73H1092.41V387.23H1086.7V340.499H1104.05C1113.4 340.499 1119.25 345.815 1119.25 354.084ZM1113.4 354.084C1113.4 349.041 1110.04 345.541 1103.78 345.541H1092.41V362.617H1103.78C1110.03 362.617 1113.4 359.188 1113.4 354.075V354.084Z" fill="black"/>
<path d="M1152.86 363.896C1152.86 349.914 1163.08 339.758 1176.46 339.758C1189.84 339.758 1200 349.914 1200 363.896C1200 377.877 1189.84 387.971 1176.46 387.971C1163.08 387.971 1152.86 377.815 1152.86 363.896ZM1194.15 363.896C1194.15 352.938 1186.82 345.207 1176.46 345.207C1166.1 345.207 1158.71 352.938 1158.71 363.896C1158.71 374.853 1166.17 382.523 1176.46 382.523C1186.75 382.523 1194.15 374.862 1194.15 363.896Z" fill="black"/>
</svg>
