<?xml version="1.0" standalone="no"?>
<!DOCTYPE svg PUBLIC "-//W3C//DTD SVG 20010904//EN"
 "http://www.w3.org/TR/2001/REC-SVG-20010904/DTD/svg10.dtd">
<svg version="1.0" xmlns="http://www.w3.org/2000/svg"
 width="835.000000pt" height="835.000000pt" viewBox="0 0 835.000000 835.000000"
 preserveAspectRatio="xMidYMid meet">

<g transform="translate(0.000000,835.000000) scale(0.100000,-0.100000)"
fill="#000000" stroke="none">
<path d="M2095 8340 l-1340 -6 -85 -22 c-341 -90 -581 -351 -647 -704 -17 -88
-18 -287 -18 -3438 l0 -3345 22 -100 c80 -374 320 -614 696 -697 l102 -23
3345 0 3345 0 105 23 c195 43 333 116 460 242 93 94 133 153 185 281 43 106
63 201 75 354 13 169 13 6425 0 6574 -13 143 -40 252 -91 359 -130 280 -376
455 -689 491 -105 12 -3582 19 -5465 11z m4880 -591 c203 -28 398 -126 520
-260 97 -108 164 -231 208 -388 l22 -76 3 -2795 c2 -1973 0 -2820 -8 -2879
-31 -234 -149 -452 -311 -576 -82 -62 -222 -128 -329 -156 -83 -22 -107 -22
-865 -29 -997 -10 -3106 -10 -4100 -1 -756 7 -771 8 -850 30 -170 48 -305 129
-416 249 -99 108 -161 224 -205 387 -18 68 -19 154 -19 2915 l0 2845 23 84
c98 359 365 597 730 650 89 13 5504 13 5597 0z"/>
<path d="M1840 4160 l0 -2390 615 0 615 0 0 1128 1 1127 37 -44 c20 -25 432
-520 915 -1100 484 -581 890 -1068 903 -1084 l24 -27 760 0 c418 0 760 3 760
6 0 6 -425 556 -521 674 -20 25 -108 137 -196 250 -87 113 -266 341 -396 507
-130 167 -237 307 -237 312 0 4 30 18 68 31 436 145 807 522 951 967 136 419
88 900 -126 1265 -97 164 -262 350 -414 465 -158 120 -394 227 -589 267 -168
34 -253 36 -1712 36 l-1458 0 0 -2390z m2755 1346 c154 -46 314 -171 383 -303
171 -325 21 -722 -326 -861 l-67 -27 -757 -3 -758 -3 0 604 c0 332 3 607 7
611 4 4 334 5 733 3 658 -3 731 -5 785 -21z"/>
</g>
</svg>
