<?xml version="1.0" standalone="no"?>
<!DOCTYPE svg PUBLIC "-//W3C//DTD SVG 20010904//EN"
 "http://www.w3.org/TR/2001/REC-SVG-20010904/DTD/svg10.dtd">
<svg version="1.0" xmlns="http://www.w3.org/2000/svg"
 width="467.000000pt" height="478.000000pt" viewBox="0 0 467.000000 478.000000"
 preserveAspectRatio="xMidYMid meet">

<g transform="translate(0.000000,478.000000) scale(0.100000,-0.100000)"
fill="#000000" stroke="none">
<path d="M10 2390 l0 -2390 615 0 615 0 0 1128 1 1127 37 -44 c20 -25 432
-520 915 -1100 484 -581 890 -1068 903 -1084 l24 -27 760 0 c418 0 760 3 760
6 0 6 -425 556 -521 674 -20 25 -108 137 -196 250 -87 113 -266 341 -396 507
-130 167 -237 307 -237 312 0 4 30 18 68 31 436 145 807 522 951 967 136 419
88 900 -126 1265 -97 164 -262 350 -414 465 -158 120 -394 227 -589 267 -168
34 -253 36 -1712 36 l-1458 0 0 -2390z m2755 1346 c154 -46 314 -171 383 -303
171 -325 21 -722 -326 -861 l-67 -27 -757 -3 -758 -3 0 604 c0 332 3 607 7
611 4 4 334 5 733 3 658 -3 731 -5 785 -21z"/>
</g>
</svg>
