<?xml version="1.0" standalone="no"?>
<!DOCTYPE svg PUBLIC "-//W3C//DTD SVG 20010904//EN"
 "http://www.w3.org/TR/2001/REC-SVG-20010904/DTD/svg10.dtd">
<svg version="1.0" xmlns="http://www.w3.org/2000/svg"
 width="652.000000pt" height="478.000000pt" viewBox="0 0 652.000000 478.000000"
 preserveAspectRatio="xMidYMid meet">

<g transform="translate(0.000000,478.000000) scale(0.100000,-0.100000)"
fill="#000000" stroke="none">
<path d="M1437 3992 c-212 -424 -383 -773 -380 -776 4 -3 51 -6 105 -6 54 0
98 -2 98 -5 0 -3 -46 -64 -102 -136 -57 -72 -114 -146 -128 -164 -14 -18 -62
-80 -108 -138 -92 -117 -87 -108 -210 -472 -45 -132 -106 -312 -137 -400 -30
-88 -55 -161 -55 -162 0 -2 54 -3 120 -3 66 0 120 -2 120 -5 0 -3 -27 -43 -60
-88 -32 -45 -88 -121 -122 -169 -35 -48 -87 -120 -117 -160 -81 -111 -103
-148 -122 -208 -10 -30 -66 -194 -124 -365 -132 -381 -165 -485 -156 -486 3
-1 52 0 109 1 83 2 102 -1 102 -12 0 -8 -18 -65 -40 -126 l-40 -112 3101 0
c2477 0 3100 3 3096 13 -24 57 -77 240 -72 247 3 6 11 10 17 10 33 0 168 44
168 54 0 7 -61 197 -135 422 -75 225 -140 425 -145 445 -6 20 -22 52 -38 72
-15 20 -39 53 -54 74 -30 42 -209 284 -257 349 -17 23 -31 43 -31 46 0 3 48 8
107 12 59 4 109 9 111 11 3 3 -46 159 -108 347 -207 632 -181 566 -268 679
-42 55 -87 115 -99 132 -12 18 -72 97 -132 176 -61 80 -110 146 -108 147 1 2
62 -9 135 -23 73 -14 135 -23 138 -20 4 3 -23 61 -59 129 -36 68 -115 222
-177 343 -62 121 -162 317 -223 435 -61 118 -161 314 -222 435 -62 120 -116
220 -121 222 -5 1 -54 -61 -109 -139 -55 -78 -113 -160 -130 -183 -16 -24 -64
-89 -105 -146 -41 -57 -82 -113 -90 -125 -15 -22 -89 -125 -125 -174 -11 -15
-37 -52 -57 -81 -21 -30 -66 -93 -100 -141 -138 -189 -278 -388 -278 -392 0
-3 52 -7 115 -8 l115 -3 -146 -115 c-81 -63 -157 -131 -169 -150 -43 -69 -386
-751 -381 -759 3 -4 45 -13 93 -21 48 -7 91 -14 95 -17 4 -2 -43 -102 -104
-221 -62 -119 -121 -236 -132 -260 -22 -47 -33 -52 -45 -19 -5 12 -34 74 -65
137 -31 63 -56 117 -56 121 0 3 41 12 90 19 50 7 90 14 90 16 0 1 -39 83 -86
181 -48 98 -111 230 -141 293 -54 114 -135 229 -459 651 -45 59 -89 117 -98
130 l-15 24 121 -3 c98 -3 119 -1 113 10 -9 15 -386 581 -706 1058 -116 173
-214 316 -219 318 -4 2 -181 -343 -393 -766z"/>
</g>
</svg>
