<svg width="503" height="503" viewBox="0 0 503 503" fill="none" xmlns="http://www.w3.org/2000/svg">
<rect width="503" height="503" rx="251.5" fill="black"/>
<path d="M220.385 196.939C231.157 190.949 243.451 188.251 255.742 189.179C268.033 190.107 279.782 194.62 289.533 202.159C299.285 209.698 306.611 219.932 310.603 231.593C314.596 243.255 315.08 255.832 311.995 267.765C308.911 279.699 302.394 290.466 293.25 298.733C284.107 306.999 272.74 312.402 260.556 314.271C248.373 316.141 235.909 314.396 224.707 309.251C213.506 304.107 204.06 295.79 197.539 285.33L195.939 282.616L194.477 279.824C187.339 265.323 186.047 248.632 190.869 233.205C195.691 217.778 206.258 204.794 220.385 196.939Z" fill="#129CD8"/>
<path d="M312.231 362.122C315.603 360.248 319.545 359.676 323.31 360.515C327.076 361.355 330.402 363.547 332.658 366.676L333.726 368.371C335.673 371.881 336.206 376.003 335.216 379.893C334.226 383.784 331.788 387.149 328.4 389.302C325.012 391.455 320.93 392.234 316.987 391.478C313.044 390.722 309.539 388.489 307.188 385.235L306.119 383.541C304.089 379.89 303.593 375.582 304.739 371.566C305.885 367.549 308.58 364.152 312.231 362.122Z" fill="#129CD8"/>
<path d="M96.4976 265.824C99.8694 263.949 103.812 263.378 107.577 264.217C111.342 265.057 114.669 267.249 116.925 270.378L117.993 272.073C119.94 275.583 120.473 279.705 119.483 283.595C118.493 287.486 116.055 290.851 112.667 293.004C109.279 295.157 105.196 295.935 101.254 295.18C97.3113 294.424 93.8062 292.191 91.4547 288.937L90.3863 287.243C88.3563 283.592 87.8598 279.284 89.0059 275.268C90.152 271.251 92.8469 267.854 96.4976 265.824Z" fill="#129CD8"/>
<path d="M344.272 128.055C347.643 126.18 351.586 125.609 355.351 126.448C359.116 127.288 362.442 129.48 364.699 132.609L365.767 134.304C367.714 137.814 368.247 141.936 367.257 145.826C366.267 149.717 363.829 153.082 360.441 155.235C357.053 157.388 352.97 158.166 349.028 157.411C345.085 156.655 341.58 154.422 339.229 151.168L338.16 149.474C336.13 145.823 335.634 141.515 336.78 137.498C337.926 133.482 340.621 130.085 344.272 128.055Z" fill="#129CD8"/>
<path d="M125.645 321.809C127.331 320.611 129.237 319.757 131.253 319.295C133.269 318.834 135.357 318.774 137.396 319.119C139.436 319.465 141.387 320.208 143.139 321.308C144.891 322.407 146.41 323.841 147.608 325.528C159.916 342.857 176.408 356.791 195.549 366.033C214.69 375.275 235.858 379.525 257.084 378.386C259.15 378.274 261.218 378.57 263.17 379.257C265.122 379.944 266.919 381.008 268.46 382.39C270 383.771 271.254 385.443 272.148 387.309C273.043 389.175 273.561 391.199 273.673 393.265C273.786 395.331 273.49 397.399 272.803 399.351C272.116 401.303 271.051 403.101 269.67 404.641C268.288 406.182 266.617 407.435 264.751 408.33C262.885 409.224 260.861 409.742 258.795 409.855C232.258 411.281 205.793 405.97 181.862 394.415C157.931 382.861 137.312 365.439 121.926 343.772C119.512 340.366 118.548 336.142 119.247 332.026C119.945 327.91 122.249 324.241 125.652 321.823L125.645 321.809Z" fill="#129CD8"/>
<path d="M374.791 183.169L376.447 182.356C378.355 181.556 380.401 181.139 382.469 181.13C384.538 181.12 386.588 181.518 388.503 182.301C390.417 183.084 392.159 184.236 393.628 185.692C395.097 187.148 396.265 188.88 397.065 190.787C407.348 215.289 411.264 241.994 408.449 268.416C405.634 294.839 396.18 320.12 380.967 341.906C379.782 343.601 378.275 345.046 376.532 346.159C374.788 347.272 372.842 348.031 370.806 348.392C368.769 348.753 366.681 348.709 364.662 348.263C362.642 347.817 360.73 346.978 359.034 345.793C357.339 344.608 355.894 343.101 354.781 341.358C353.668 339.614 352.909 337.669 352.548 335.632C352.187 333.595 352.231 331.507 352.677 329.488C353.123 327.468 353.962 325.556 355.147 323.861C367.313 306.434 374.874 286.213 377.125 265.08C379.377 243.946 376.246 222.587 368.024 202.988C366.527 199.43 366.389 195.445 367.636 191.791C368.884 188.137 371.43 185.069 374.791 183.169Z" fill="#129CD8"/>
<path d="M102.947 194.226C116.351 160.425 141.038 132.303 172.818 114.632C204.597 96.9619 241.512 90.832 277.298 97.2829C279.359 97.6212 281.332 98.3662 283.102 99.4743C284.873 100.582 286.405 102.032 287.61 103.738C288.815 105.444 289.669 107.372 290.122 109.411C290.574 111.45 290.617 113.559 290.247 115.614C289.877 117.67 289.102 119.632 287.967 121.385C286.832 123.138 285.359 124.648 283.635 125.827C281.911 127.005 279.969 127.83 277.924 128.251C275.878 128.672 273.769 128.683 271.719 128.281C243.087 123.117 213.551 128.02 188.123 142.159C162.696 156.297 142.944 178.799 132.222 205.845C131.482 207.798 130.36 209.584 128.923 211.1C127.485 212.615 125.761 213.829 123.85 214.672C121.938 215.514 119.879 215.968 117.79 216.007C115.702 216.047 113.627 215.67 111.686 214.899C109.744 214.129 107.976 212.98 106.483 211.519C104.989 210.059 103.802 208.316 102.989 206.392C102.175 204.468 101.753 202.402 101.746 200.313C101.739 198.225 102.147 196.156 102.947 194.226Z" fill="#129CD8"/>
</svg>
